<svg width="15" height="15" viewBox="0 0 15 15" fill="none" xmlns="http://www.w3.org/2000/svg">
<path d="M14.7625 11.7583L11.7708 14.75C11.4467 15.0742 10.92 15.0742 10.5958 14.75L8.95584 13.11C8.85834 13.0125 8.85834 12.8542 8.95584 12.7567L12.7692 8.94333C12.8667 8.84583 13.025 8.84583 13.1225 8.94333L14.7625 10.5833C15.0867 10.9075 15.0867 11.4342 14.7625 11.7583ZM12.295 7.47915L11.2375 3.24999C10.9958 2.28333 10.2042 1.55 9.22084 1.38334L0.962499 0C0.950832 0.0225 0.951672 0.0216488 0.940005 0.0441488L5.52083 4.62499C5.9375 4.49999 6.39584 4.60833 6.72084 4.94166C7.2125 5.42499 7.2125 6.21666 6.72084 6.70832C6.2375 7.19999 5.43751 7.19999 4.95417 6.70832C4.62084 6.38332 4.5125 5.91665 4.6375 5.50832L0.00417074 0.87499C0.000837402 0.876656 0.00416667 0.875002 0 0.876668L1.39584 9.20832C1.5625 10.1917 2.29584 10.9833 3.26251 11.225L7.49167 12.2825C7.57667 12.3042 7.66667 12.2792 7.72917 12.2167L12.2292 7.71665C12.2908 7.65498 12.3158 7.56415 12.295 7.47915Z" fill="#718096"/>
</svg>
