<svg width="164" height="107" viewBox="0 0 164 107" fill="none" xmlns="http://www.w3.org/2000/svg">
<path d="M14.1839 99.0531V80.4771H17.8829V99.0531H14.1839ZM8.13589 83.3391V80.0721H23.9309V83.3391H8.13589ZM28.2992 99.3231C27.1112 99.3231 26.0402 99.0261 25.0862 98.4321C24.1322 97.8381 23.3852 97.0281 22.8452 96.0021C22.3052 94.9761 22.0352 93.8241 22.0352 92.5461C22.0352 91.2501 22.3052 90.0891 22.8452 89.0631C23.3852 88.0371 24.1322 87.2271 25.0862 86.6331C26.0402 86.0391 27.1112 85.7421 28.2992 85.7421C29.2352 85.7421 30.0722 85.9311 30.8102 86.3091C31.5482 86.6871 32.1332 87.2181 32.5652 87.9021C33.0152 88.5681 33.2582 89.3241 33.2942 90.1701V94.8681C33.2582 95.7321 33.0152 96.4971 32.5652 97.1631C32.1332 97.8291 31.5482 98.3601 30.8102 98.7561C30.0722 99.1341 29.2352 99.3231 28.2992 99.3231ZM28.9472 96.0561C29.9372 96.0561 30.7382 95.7321 31.3502 95.0841C31.9622 94.4181 32.2682 93.5631 32.2682 92.5191C32.2682 91.8351 32.1242 91.2321 31.8362 90.7101C31.5662 90.1701 31.1792 89.7561 30.6752 89.4681C30.1892 89.1621 29.6132 89.0091 28.9472 89.0091C28.2992 89.0091 27.7232 89.1621 27.2192 89.4681C26.7332 89.7561 26.3462 90.1701 26.0582 90.7101C25.7882 91.2321 25.6532 91.8351 25.6532 92.5191C25.6532 93.2211 25.7882 93.8421 26.0582 94.3821C26.3462 94.9041 26.7332 95.3181 27.2192 95.6241C27.7232 95.9121 28.2992 96.0561 28.9472 96.0561ZM32.0792 99.0531V95.5431L32.6462 92.3571L32.0792 89.2251V86.0121H35.5892V99.0531H32.0792ZM38.7182 99.0531V86.0121H42.2552V99.0531H38.7182ZM42.2552 91.8441L40.8782 90.9261C41.0402 89.3241 41.5082 88.0641 42.2822 87.1461C43.0562 86.2101 44.1722 85.7421 45.6302 85.7421C46.2602 85.7421 46.8272 85.8501 47.3312 86.0661C47.8352 86.2641 48.2942 86.5971 48.7082 87.0651L46.4942 89.6031C46.2962 89.3871 46.0532 89.2251 45.7652 89.1171C45.4952 89.0091 45.1802 88.9551 44.8202 88.9551C44.0642 88.9551 43.4432 89.1981 42.9572 89.6841C42.4892 90.1521 42.2552 90.8721 42.2552 91.8441ZM55.0355 99.3231C53.8475 99.3231 52.7765 99.0261 51.8225 98.4321C50.8685 97.8381 50.1215 97.0281 49.5815 96.0021C49.0415 94.9761 48.7715 93.8241 48.7715 92.5461C48.7715 91.2501 49.0415 90.0891 49.5815 89.0631C50.1215 88.0371 50.8685 87.2271 51.8225 86.6331C52.7765 86.0391 53.8475 85.7421 55.0355 85.7421C55.9715 85.7421 56.8085 85.9311 57.5465 86.3091C58.2845 86.6871 58.8695 87.2181 59.3015 87.9021C59.7515 88.5681 59.9945 89.3241 60.0305 90.1701V94.8681C59.9945 95.7321 59.7515 96.4971 59.3015 97.1631C58.8695 97.8291 58.2845 98.3601 57.5465 98.7561C56.8085 99.1341 55.9715 99.3231 55.0355 99.3231ZM55.6835 96.0561C56.6735 96.0561 57.4745 95.7321 58.0865 95.0841C58.6985 94.4181 59.0045 93.5631 59.0045 92.5191C59.0045 91.8351 58.8605 91.2321 58.5725 90.7101C58.3025 90.1701 57.9155 89.7561 57.4115 89.4681C56.9255 89.1621 56.3495 89.0091 55.6835 89.0091C55.0355 89.0091 54.4595 89.1621 53.9555 89.4681C53.4695 89.7561 53.0825 90.1701 52.7945 90.7101C52.5245 91.2321 52.3895 91.8351 52.3895 92.5191C52.3895 93.2211 52.5245 93.8421 52.7945 94.3821C53.0825 94.9041 53.4695 95.3181 53.9555 95.6241C54.4595 95.9121 55.0355 96.0561 55.6835 96.0561ZM58.8155 99.0531V95.5431L59.3825 92.3571L58.8155 89.2251V86.0121H62.3255V99.0531H58.8155Z" fill="#DEE33E"/>
<path d="M74.6346 99.3231C73.2486 99.3231 71.9616 99.0801 70.7736 98.5941C69.5856 98.0901 68.5416 97.3971 67.6416 96.5151C66.7596 95.6151 66.0756 94.5711 65.5896 93.3831C65.1216 92.1951 64.8876 90.9171 64.8876 89.5491C64.8876 88.1811 65.1216 86.9031 65.5896 85.7151C66.0756 84.5271 66.7596 83.4921 67.6416 82.6101C68.5416 81.7281 69.5766 81.0351 70.7466 80.5311C71.9346 80.0271 73.2306 79.7751 74.6346 79.7751C76.1466 79.7751 77.4786 80.0271 78.6306 80.5311C79.7826 81.0171 80.7996 81.6921 81.6816 82.5561L79.1976 85.0401C78.6756 84.4641 78.0366 84.0141 77.2806 83.6901C76.5246 83.3661 75.6426 83.2041 74.6346 83.2041C73.7526 83.2041 72.9426 83.3571 72.2046 83.6631C71.4846 83.9511 70.8546 84.3831 70.3146 84.9591C69.7746 85.5171 69.3606 86.1921 69.0726 86.9841C68.7846 87.7581 68.6406 88.6131 68.6406 89.5491C68.6406 90.5031 68.7846 91.3671 69.0726 92.1411C69.3606 92.9151 69.7746 93.5901 70.3146 94.1661C70.8546 94.7241 71.4846 95.1561 72.2046 95.4621C72.9426 95.7681 73.7526 95.9211 74.6346 95.9211C75.6966 95.9211 76.6056 95.7591 77.3616 95.4351C78.1356 95.1111 78.7836 94.6521 79.3056 94.0581L81.7896 96.5421C80.9076 97.4241 79.8816 98.1081 78.7116 98.5941C77.5416 99.0801 76.1826 99.3231 74.6346 99.3231ZM89.7506 99.3231C88.4366 99.3231 87.2486 99.0261 86.1866 98.4321C85.1426 97.8201 84.3056 97.0011 83.6756 95.9751C83.0636 94.9311 82.7576 93.7701 82.7576 92.4921C82.7576 91.2141 83.0636 90.0711 83.6756 89.0631C84.2876 88.0371 85.1246 87.2271 86.1866 86.6331C87.2486 86.0211 88.4276 85.7151 89.7236 85.7151C91.0556 85.7151 92.2436 86.0211 93.2876 86.6331C94.3496 87.2271 95.1866 88.0371 95.7986 89.0631C96.4106 90.0711 96.7166 91.2141 96.7166 92.4921C96.7166 93.7701 96.4106 94.9311 95.7986 95.9751C95.1866 97.0011 94.3496 97.8201 93.2876 98.4321C92.2436 99.0261 91.0646 99.3231 89.7506 99.3231ZM89.7236 96.0291C90.3896 96.0291 90.9746 95.8851 91.4786 95.5971C92.0006 95.2911 92.3966 94.8771 92.6666 94.3551C92.9546 93.8151 93.0986 93.2031 93.0986 92.5191C93.0986 91.8351 92.9546 91.2321 92.6666 90.7101C92.3786 90.1881 91.9826 89.7831 91.4786 89.4951C90.9746 89.1891 90.3896 89.0361 89.7236 89.0361C89.0756 89.0361 88.4996 89.1891 87.9956 89.4951C87.4916 89.7831 87.0956 90.1881 86.8076 90.7101C86.5196 91.2321 86.3756 91.8351 86.3756 92.5191C86.3756 93.2031 86.5196 93.8151 86.8076 94.3551C87.0956 94.8771 87.4916 95.2911 87.9956 95.5971C88.4996 95.8851 89.0756 96.0291 89.7236 96.0291ZM107.769 99.0531V91.5741C107.769 90.8001 107.526 90.1701 107.04 89.6841C106.554 89.1981 105.924 88.9551 105.15 88.9551C104.646 88.9551 104.196 89.0631 103.8 89.2791C103.404 89.4951 103.089 89.8011 102.855 90.1971C102.639 90.5931 102.531 91.0521 102.531 91.5741L101.154 90.8721C101.154 89.8461 101.37 88.9551 101.802 88.1991C102.252 87.4251 102.864 86.8221 103.638 86.3901C104.43 85.9581 105.321 85.7421 106.311 85.7421C107.265 85.7421 108.12 85.9851 108.876 86.4711C109.632 86.9391 110.226 87.5601 110.658 88.3341C111.09 89.0901 111.306 89.9091 111.306 90.7911V99.0531H107.769ZM98.9936 99.0531V86.0121H102.531V99.0531H98.9936ZM115.914 99.0531V80.5851H119.451V99.0531H115.914ZM112.863 89.1171V86.0121H122.502V89.1171H112.863ZM124.491 99.0531V86.0121H128.028V99.0531H124.491ZM128.028 91.8441L126.651 90.9261C126.813 89.3241 127.281 88.0641 128.055 87.1461C128.829 86.2101 129.945 85.7421 131.403 85.7421C132.033 85.7421 132.6 85.8501 133.104 86.0661C133.608 86.2641 134.067 86.5971 134.481 87.0651L132.267 89.6031C132.069 89.3871 131.826 89.2251 131.538 89.1171C131.268 89.0091 130.953 88.9551 130.593 88.9551C129.837 88.9551 129.216 89.1981 128.73 89.6841C128.262 90.1521 128.028 90.8721 128.028 91.8441ZM141.483 99.3231C140.169 99.3231 138.981 99.0261 137.919 98.4321C136.875 97.8201 136.038 97.0011 135.408 95.9751C134.796 94.9311 134.49 93.7701 134.49 92.4921C134.49 91.2141 134.796 90.0711 135.408 89.0631C136.02 88.0371 136.857 87.2271 137.919 86.6331C138.981 86.0211 140.16 85.7151 141.456 85.7151C142.788 85.7151 143.976 86.0211 145.02 86.6331C146.082 87.2271 146.919 88.0371 147.531 89.0631C148.143 90.0711 148.449 91.2141 148.449 92.4921C148.449 93.7701 148.143 94.9311 147.531 95.9751C146.919 97.0011 146.082 97.8201 145.02 98.4321C143.976 99.0261 142.797 99.3231 141.483 99.3231ZM141.456 96.0291C142.122 96.0291 142.707 95.8851 143.211 95.5971C143.733 95.2911 144.129 94.8771 144.399 94.3551C144.687 93.8151 144.831 93.2031 144.831 92.5191C144.831 91.8351 144.687 91.2321 144.399 90.7101C144.111 90.1881 143.715 89.7831 143.211 89.4951C142.707 89.1891 142.122 89.0361 141.456 89.0361C140.808 89.0361 140.232 89.1891 139.728 89.4951C139.224 89.7831 138.828 90.1881 138.54 90.7101C138.252 91.2321 138.108 91.8351 138.108 92.5191C138.108 93.2031 138.252 93.8151 138.54 94.3551C138.828 94.8771 139.224 95.2911 139.728 95.5971C140.232 95.8851 140.808 96.0291 141.456 96.0291ZM150.726 99.0531V79.5321H154.263V99.0531H150.726Z" fill="black"/>
<path d="M62.5048 19.2104C60.0007 11.5036 64.2183 3.22614 71.925 0.722079C79.6317 -1.78199 87.9092 2.4356 90.4133 10.1423L101.594 44.5538C104.098 52.2605 99.8807 60.538 92.174 63.0421C84.4673 65.5461 76.1898 61.3285 73.6857 53.6218L62.5048 19.2104Z" fill="#DEE33E"/>
<path d="M101.536 19.2104C99.0321 11.5036 103.25 3.22614 110.956 0.722079C118.663 -1.78199 126.941 2.4356 129.445 10.1423L140.626 44.5538C143.13 52.2605 138.912 60.538 131.205 63.0421C123.499 65.5461 115.221 61.3285 112.717 53.6218L101.536 19.2104Z" fill="#DEE33E"/>
<path d="M22.2836 19.2104C19.7795 11.5036 23.9971 3.22614 31.7038 0.722079C39.4106 -1.78199 47.688 2.4356 50.1921 10.1423L61.3731 44.5538C63.8771 52.2605 59.6596 60.538 51.9528 63.0421C44.2461 65.5461 35.9686 61.3285 33.4646 53.6218L22.2836 19.2104Z" fill="#DEE33E"/>
</svg>
